<svg width="120" height="39" viewBox="0 0 120 39" fill="none" xmlns="http://www.w3.org/2000/svg">
<path d="M11.5518 14.1019V27.3575H9.37746V14.1019H11.5518ZM16.5807 13.2436V27.3575H14.4064V13.2436H16.5807ZM21.6097 13.2436V27.3575H19.4354V13.2436H21.6097ZM33.9817 16.8484V27.3575H31.8074V26.1177C31.4641 26.5501 31.0127 26.8934 30.4532 27.1477C29.9065 27.3893 29.3216 27.5101 28.6985 27.5101C27.872 27.5101 27.1282 27.3384 26.467 26.9951C25.8185 26.6518 25.3036 26.1432 24.9221 25.4693C24.5534 24.7954 24.369 23.9816 24.369 23.0279V16.8484H26.5242V22.7037C26.5242 23.6446 26.7595 24.3694 27.2299 24.878C27.7004 25.3739 28.3425 25.6219 29.1563 25.6219C29.9701 25.6219 30.6122 25.3739 31.0826 24.878C31.5658 24.3694 31.8074 23.6446 31.8074 22.7037V16.8484H33.9817ZM49.5721 16.6767C50.3986 16.6767 51.1361 16.8484 51.7846 17.1917C52.4458 17.535 52.9607 18.0436 53.3295 18.7175C53.7109 19.3914 53.9016 20.2052 53.9016 21.1588V27.3575H51.7464V21.4831C51.7464 20.5421 51.5112 19.8237 51.0407 19.3278C50.5703 18.8192 49.9281 18.5649 49.1144 18.5649C48.3006 18.5649 47.6521 18.8192 47.1689 19.3278C46.6985 19.8237 46.4632 20.5421 46.4632 21.4831V27.3575H44.308V21.4831C44.308 20.5421 44.0728 19.8237 43.6023 19.3278C43.1319 18.8192 42.4897 18.5649 41.676 18.5649C40.8622 18.5649 40.2137 18.8192 39.7305 19.3278C39.2601 19.8237 39.0248 20.5421 39.0248 21.4831V27.3575H36.8505V16.8484H39.0248V18.0499C39.3809 17.6176 39.8323 17.2807 40.379 17.0391C40.9258 16.7975 41.5107 16.6767 42.1337 16.6767C42.9729 16.6767 43.7231 16.8547 44.3843 17.2107C45.0455 17.5668 45.5541 18.0817 45.9101 18.7556C46.228 18.1199 46.7239 17.6176 47.3978 17.2489C48.0717 16.8674 48.7965 16.6767 49.5721 16.6767ZM57.7746 15.456C57.3805 15.456 57.0499 15.3225 56.7828 15.0555C56.5158 14.7885 56.3823 14.4579 56.3823 14.0637C56.3823 13.6695 56.5158 13.339 56.7828 13.0719C57.0499 12.8049 57.3805 12.6714 57.7746 12.6714C58.1561 12.6714 58.4803 12.8049 58.7473 13.0719C59.0144 13.339 59.1479 13.6695 59.1479 14.0637C59.1479 14.4579 59.0144 14.7885 58.7473 15.0555C58.4803 15.3225 58.1561 15.456 57.7746 15.456ZM58.8427 16.8484V27.3575H56.6684V16.8484H58.8427ZM66.9996 16.6767C67.8261 16.6767 68.5636 16.8484 69.2121 17.1917C69.8733 17.535 70.3882 18.0436 70.757 18.7175C71.1257 19.3914 71.3101 20.2052 71.3101 21.1588V27.3575H69.1548V21.4831C69.1548 20.5421 68.9196 19.8237 68.4492 19.3278C67.9787 18.8192 67.3366 18.5649 66.5228 18.5649C65.709 18.5649 65.0605 18.8192 64.5774 19.3278C64.1069 19.8237 63.8717 20.5421 63.8717 21.4831V27.3575H61.6974V16.8484H63.8717V18.0499C64.2277 17.6176 64.6791 17.2807 65.2258 17.0391C65.7853 16.7975 66.3766 16.6767 66.9996 16.6767ZM78.6419 27.5291C77.6502 27.5291 76.7537 27.3066 75.9527 26.8616C75.1516 26.4038 74.5222 25.7681 74.0645 24.9543C73.6067 24.1278 73.3778 23.1742 73.3778 22.0934C73.3778 21.0253 73.6131 20.078 74.0835 19.2515C74.554 18.425 75.1961 17.7893 76.0099 17.3442C76.8237 16.8992 77.7328 16.6767 78.7373 16.6767C79.7418 16.6767 80.6509 16.8992 81.4647 17.3442C82.2785 17.7893 82.9206 18.425 83.3911 19.2515C83.8615 20.078 84.0968 21.0253 84.0968 22.0934C84.0968 23.1615 83.8552 24.1087 83.372 24.9352C82.8888 25.7617 82.2276 26.4038 81.3884 26.8616C80.5619 27.3066 79.6464 27.5291 78.6419 27.5291ZM78.6419 25.6409C79.2014 25.6409 79.7227 25.5074 80.2059 25.2404C80.7018 24.9734 81.1023 24.5728 81.4075 24.0388C81.7127 23.5048 81.8652 22.8563 81.8652 22.0934C81.8652 21.3305 81.719 20.6883 81.4266 20.167C81.1341 19.633 80.7463 19.2325 80.2631 18.9654C79.78 18.6984 79.2586 18.5649 78.6992 18.5649C78.1397 18.5649 77.6184 18.6984 77.1352 18.9654C76.6647 19.2325 76.2896 19.633 76.0099 20.167C75.7302 20.6883 75.5903 21.3305 75.5903 22.0934C75.5903 23.225 75.8764 24.1024 76.4486 24.7254C77.0335 25.3358 77.7646 25.6409 78.6419 25.6409ZM95.7635 16.8484V27.3575H93.5892V26.1177C93.2459 26.5501 92.7945 26.8934 92.2351 27.1477C91.6883 27.3893 91.1034 27.5101 90.4804 27.5101C89.6539 27.5101 88.91 27.3384 88.2488 26.9951C87.6004 26.6518 87.0854 26.1432 86.7039 25.4693C86.3352 24.7954 86.1508 23.9816 86.1508 23.0279V16.8484H88.3061V22.7037C88.3061 23.6446 88.5413 24.3694 89.0118 24.878C89.4822 25.3739 90.1243 25.6219 90.9381 25.6219C91.7519 25.6219 92.394 25.3739 92.8645 24.878C93.3476 24.3694 93.5892 23.6446 93.5892 22.7037V16.8484H95.7635ZM102.447 27.5291C101.62 27.5291 100.877 27.3829 100.215 27.0905C99.5669 26.7853 99.052 26.3784 98.6705 25.8698C98.289 25.3485 98.0856 24.7699 98.0602 24.1342H100.311C100.349 24.5792 100.559 24.9543 100.94 25.2595C101.334 25.5519 101.824 25.6981 102.409 25.6981C103.019 25.6981 103.49 25.5837 103.82 25.3548C104.163 25.1132 104.335 24.8081 104.335 24.4393C104.335 24.0452 104.144 23.7527 103.763 23.562C103.394 23.3713 102.803 23.1615 101.989 22.9326C101.201 22.7164 100.559 22.5066 100.063 22.3032C99.5669 22.0997 99.1346 21.7882 98.7659 21.3686C98.4098 20.949 98.2318 20.3959 98.2318 19.7093C98.2318 19.1498 98.3971 18.6412 98.7277 18.1834C99.0583 17.713 99.5288 17.3442 100.139 17.0772C100.762 16.8102 101.474 16.6767 102.275 16.6767C103.471 16.6767 104.431 16.9819 105.155 17.5922C105.893 18.1898 106.287 19.0099 106.338 20.0526H104.163C104.125 19.5821 103.935 19.207 103.591 18.9273C103.248 18.6476 102.784 18.5077 102.199 18.5077C101.627 18.5077 101.188 18.6158 100.883 18.8319C100.578 19.0481 100.425 19.3342 100.425 19.6902C100.425 19.9699 100.527 20.2052 100.73 20.3959C100.934 20.5866 101.182 20.7392 101.474 20.8536C101.767 20.9554 102.199 21.0889 102.771 21.2542C103.534 21.4576 104.157 21.6674 104.64 21.8836C105.136 22.087 105.562 22.3922 105.918 22.7991C106.274 23.206 106.459 23.7464 106.471 24.4203C106.471 25.0179 106.306 25.5519 105.975 26.0224C105.645 26.4928 105.174 26.8616 104.564 27.1286C103.966 27.3956 103.261 27.5291 102.447 27.5291Z" fill="white"/>
<path fill-rule="evenodd" clip-rule="evenodd" d="M28.4434 3.57597C28.4434 4.23432 27.9097 4.76802 27.2514 4.76802H3.97351C3.0957 4.76802 2.3841 5.47962 2.3841 6.35742V19.4701C2.3841 20.1284 1.85041 20.6621 1.19206 20.6621C0.533706 20.6621 7.43517e-06 21.1958 7.1165e-06 21.8541L0 36.5561V4.76802V3.97331C0 3.09551 0.7116 2.38391 1.5894 2.38391H2.3841H114.437H115.232C116.11 2.38391 116.821 3.09551 116.821 3.97331V4.76802V36.5561V37.3508C116.821 38.2286 116.11 38.9402 115.232 38.9402H114.437L89.5698 38.9402C88.9115 38.9402 88.3778 38.4065 88.3778 37.7482C88.3778 37.0898 88.9115 36.5561 89.5698 36.5561H112.848C113.726 36.5561 114.437 35.8445 114.437 34.9667V21.8541C114.437 21.1958 114.971 20.6621 115.629 20.6621C116.287 20.6621 116.821 20.1284 116.821 19.4701V3.97333C116.821 3.09553 116.11 2.38393 115.232 2.38393H29.6355C28.9771 2.38393 28.4434 2.91762 28.4434 3.57597Z" fill="#EF4234"/>
<ellipse cx="114.04" cy="5.96009" rx="5.96026" ry="5.96027" fill="#EF4234"/>
</svg>
